<svg xmlns="http://www.w3.org/2000/svg" viewBox="0 0 34 34"><path d="M 10.625 6.375 a 6.375 6.375 90 1 1 12.75 0 A 6.375 6.375 90 1 1 10.625 6.375 z m 5.3125 10.0938 l 0 17.5313 l -3.2141 -1.607 c -1.3879 -0.6906 -2.8887 -1.1289 -4.4359 -1.2816 l -6.375 -0.6375 C 0.8301 30.3609 0 29.4512 0 28.3555 L 0 14.875 c 0 -1.1754 0.9496 -2.125 2.125 -2.125 l 2.0121 0 c 4.2234 0 8.3406 1.3016 11.8004 3.7188 z m 2.125 17.5313 l 0 -17.5313 c 3.4598 -2.4172 7.577 -3.7188 11.8004 -3.7188 l 2.0121 0 c 1.1754 0 2.125 0.9496 2.125 2.125 l 0 13.4805 c 0 1.0891 -0.8301 2.0055 -1.9125 2.1117 l -6.375 0.6375 c -1.5406 0.1527 -3.048 0.591 -4.4359 1.2816 L 18.0625 34 z"/></svg>